<svg width="1280" height="720" xmlns="http://www.w3.org/2000/svg" xmlns:xlink="http://www.w3.org/1999/xlink" overflow="hidden"><g><rect x="0" y="0" width="1280" height="720" fill="#FFFFFF"/><rect x="666" y="105" width="114" height="35" stroke="#042433" stroke-width="2" stroke-miterlimit="8" fill="#4EA72E"/><text fill="#FFFFFF" font-family="Aptos,Aptos_MSFontService,sans-serif" font-weight="400" font-size="12" transform="translate(675.809 127)">ResourceManager</text><rect x="903" y="88" width="105" height="24" stroke="#042433" stroke-width="2" stroke-miterlimit="8" fill="#156082"/><text fill="#FFFFFF" font-family="Aptos,Aptos_MSFontService,sans-serif" font-weight="400" font-size="12" transform="translate(912.832 104)">NodeManager_1</text><rect x="903" y="124" width="105" height="24" stroke="#042433" stroke-width="2" stroke-miterlimit="8" fill="#156082"/><text fill="#FFFFFF" font-family="Aptos,Aptos_MSFontService,sans-serif" font-weight="400" font-size="12" transform="translate(912.832 140)">NodeManager_2</text><rect x="903" y="160" width="105" height="24" stroke="#042433" stroke-width="2" stroke-miterlimit="8" fill="#156082"/><text fill="#FFFFFF" font-family="Aptos,Aptos_MSFontService,sans-serif" font-weight="400" font-size="12" transform="translate(912.832 176)">NodeManager_3</text><rect x="208" y="215" width="87" height="34" stroke="#042433" stroke-width="2" stroke-miterlimit="8" fill="#156082"/><text fill="#FFFFFF" font-family="Aptos,Aptos_MSFontService,sans-serif" font-weight="400" font-size="12" transform="translate(219.29 236)">DataNode_n</text><path d="M47 177.833C47 171.298 70.5051 166 99.5 166 128.495 166 152 171.298 152 177.833L152 225.167C152 231.702 128.495 237 99.5 237 70.5051 237 47 231.702 47 225.167Z" fill="#BEB618" fill-rule="evenodd"/><path d="M152 177.833C152 184.369 128.495 189.667 99.5 189.667 70.5051 189.667 47 184.369 47 177.833" stroke="#042433" stroke-width="2" stroke-miterlimit="8" fill="none" fill-rule="evenodd"/><path d="M47 177.833C47 171.298 70.5051 166 99.5 166 128.495 166 152 171.298 152 177.833L152 225.167C152 231.702 128.495 237 99.5 237 70.5051 237 47 231.702 47 225.167Z" stroke="#042433" stroke-width="2" stroke-miterlimit="8" fill="none" fill-rule="evenodd"/><text fill="#FFFFFF" font-family="Aptos,Aptos_MSFontService,sans-serif" font-weight="400" font-size="24" transform="translate(77.8908 215)">NFS</text><rect x="351" y="247" width="96" height="35" stroke="#042433" stroke-width="2" stroke-miterlimit="8" fill="#4EA72E"/><text fill="#FFFFFF" font-family="Aptos,Aptos_MSFontService,sans-serif" font-weight="400" font-size="12" transform="translate(363.491 268)">NameNode_1</text><rect x="475" y="248" width="96" height="35" stroke="#042433" stroke-width="2" stroke-miterlimit="8" fill="#4EA72E"/><text fill="#FFFFFF" font-family="Aptos,Aptos_MSFontService,sans-serif" font-weight="400" font-size="12" transform="translate(487.281 269)">NameNode_2</text><rect x="326" y="109" width="272" height="201" stroke="#042433" stroke-width="2" stroke-linecap="square" stroke-miterlimit="8" stroke-dasharray="6 2" fill="none"/><rect x="340" y="131" width="104" height="23" stroke="#622C0F" stroke-width="2" stroke-miterlimit="8" fill="#E97132"/><text fill="#FFFFFF" font-family="Aptos,Aptos_MSFontService,sans-serif" font-weight="400" font-size="12" transform="translate(353.25 146)">JournalNode_2</text><rect x="486" y="131" width="104" height="23" stroke="#622C0F" stroke-width="2" stroke-miterlimit="8" fill="#E97132"/><text fill="#FFFFFF" font-family="Aptos,Aptos_MSFontService,sans-serif" font-weight="400" font-size="12" transform="translate(499.355 146)">JournalNode_3</text><rect x="410" y="189" width="104" height="23" stroke="#622C0F" stroke-width="2" stroke-miterlimit="8" fill="#E97132"/><text fill="#FFFFFF" font-family="Aptos,Aptos_MSFontService,sans-serif" font-weight="400" font-size="12" transform="translate(423.145 204)">JournalNode_1</text><path d="M6.48525 1.84019 70.5507 30.8638 69.7254 32.6856 5.65993 3.66196ZM5.63645 6.94482 0 0 8.93772-0.342266ZM70.5742 27.581 76.2106 34.5258 67.2729 34.868Z" fill="#156082" transform="matrix(1 0 0 -1 462 188.526)"/><path d="M398.42 156.056 456.36 184.677 455.475 186.47 397.534 157.849ZM397.401 161.129 392 154 400.944 153.957ZM456.493 181.396 461.895 188.526 452.95 188.569Z" fill="#156082"/><path d="M450.667 141 479.86 141 479.86 143 450.667 143ZM452 146 444 142 452 138ZM478.526 138 486.526 142 478.526 146Z" fill="#156082"/><path d="M468.27 214.476 517.785 243.161 516.783 244.891 467.267 216.207ZM466.917 219.471 462 212 470.927 212.549ZM518.135 239.897 523.053 247.368 514.125 246.819Z" fill="#156082"/><path d="M6.32276 2.33816 57.3782 30.4354 56.4139 32.1876 5.35848 4.09035ZM5.0802 7.36149 0 0 8.93731 0.352737ZM57.6565 27.1643 62.7367 34.5258 53.7994 34.173Z" fill="#156082" transform="matrix(-1 0 0 1 461.737 212)"/><rect x="342" y="95" width="105" height="24" stroke="#042433" stroke-width="2" stroke-miterlimit="8" fill="#FFFFFF"/><text font-family="Aptos,Aptos_MSFontService,sans-serif" font-weight="400" font-size="14" transform="translate(356.693 112)">myhacluster</text><rect x="332" y="235" width="60" height="24" stroke="#042433" stroke-width="2" stroke-miterlimit="8" fill="#FFFFFF"/><text font-family="Aptos,Aptos_MSFontService,sans-serif" font-weight="400" font-size="12" transform="translate(346.312 251)">active</text><rect x="526" y="235" width="66" height="24" stroke="#042433" stroke-width="2" stroke-miterlimit="8" fill="#FFFFFF"/><text font-family="Aptos,Aptos_MSFontService,sans-serif" font-weight="400" font-size="12" transform="translate(536.272 251)">stand</text><text font-family="Aptos,Aptos_MSFontService,sans-serif" font-weight="400" font-size="12" transform="translate(565.606 251)">-</text><text font-family="Aptos,Aptos_MSFontService,sans-serif" font-weight="400" font-size="12" transform="translate(569.772 251)">by</text><rect x="208" y="137" width="87" height="34" stroke="#042433" stroke-width="2" stroke-miterlimit="8" fill="#156082"/><text fill="#FFFFFF" font-family="Aptos,Aptos_MSFontService,sans-serif" font-weight="400" font-size="12" transform="translate(219.456 158)">DataNode_1</text><path d="M6.66667-0.999977 24.0698-0.999918 24.0698 1.00008 6.66666 1.00002ZM7.99999 4.00003 0 0 8.00001-3.99997ZM22.7365-3.99992 30.7365 0.000104987 22.7365 4.00008Z" fill="#156082" transform="matrix(-1 0 0 1 325.736 232)"/><path d="M6.66668-0.999886 24.07-0.999589 24.07 1.00041 6.66665 1.00011ZM7.99993 4.00014 0 0 8.00007-3.99986ZM22.7368-3.99961 30.7367 0.000524934 22.7366 4.00039Z" fill="#156082" transform="matrix(1 0 0 -1 295 154.001)"/><rect x="189" y="82" width="421" height="240" stroke="#042433" stroke-width="2" stroke-miterlimit="8" fill="none"/><rect x="203" y="72" width="105" height="23" stroke="#042433" stroke-width="2" stroke-miterlimit="8" fill="#FFFFFF"/><text font-family="Aptos,Aptos_MSFontService,sans-serif" font-weight="400" font-size="14" transform="translate(238.162 88)">HDFS</text><rect x="208" y="176" width="87" height="35" stroke="#042433" stroke-width="2" stroke-miterlimit="8" fill="#156082"/><text fill="#FFFFFF" font-family="Aptos,Aptos_MSFontService,sans-serif" font-weight="400" font-size="12" transform="translate(246.873 197)">…</text><path d="M158.667 201 182.701 201 182.701 203 158.667 203ZM160 206 152 202 160 198ZM181.368 198 189.368 202 181.368 206Z" fill="#156082"/><rect x="421" y="274" width="43" height="27" stroke="#042433" stroke-width="2" stroke-miterlimit="8" fill="#4EA72E"/><text fill="#FFFFFF" font-family="Aptos,Aptos_MSFontService,sans-serif" font-weight="400" font-size="8" transform="translate(433.357 290)">ZKFC</text><rect x="549" y="274" width="43" height="27" stroke="#042433" stroke-width="2" stroke-miterlimit="8" fill="#4EA72E"/><text fill="#FFFFFF" font-family="Aptos,Aptos_MSFontService,sans-serif" font-weight="400" font-size="8" transform="translate(561.266 290)">ZKFC</text><path d="M6.7368 0.245972 116.419 20.8155 116.05 22.7812 6.36815 2.2117ZM7.12562 5.40606 0 0 8.60022-2.45686ZM115.661 17.6211 122.787 23.0272 114.187 25.4841Z" fill="#156082" transform="matrix(1 0 0 -1 780 123.027)"/><path d="M786.735 122.711 896.263 134.361 896.052 136.35 786.523 124.7ZM787.532 127.824 780 123 788.378 119.869ZM895.255 131.237 902.787 136.061 894.409 139.192Z" fill="#156082"/><path d="M786.557 124.565 896.977 169.08 896.229 170.935 785.809 126.42ZM785.924 129.701 780 123 788.915 122.281ZM896.862 165.799 902.787 172.5 893.871 173.219Z" fill="#156082"/><rect x="661" y="82" width="386" height="165" stroke="#042433" stroke-width="2" stroke-miterlimit="8" fill="none"/><rect x="810" y="208" width="104" height="23" stroke="#622C0F" stroke-width="2" stroke-miterlimit="8" fill="#E97132"/><text fill="#FFFFFF" font-family="Aptos,Aptos_MSFontService,sans-serif" font-weight="400" font-size="12" transform="translate(826.762 223)">HistoryServer</text><path d="M1.85753e-06-1 49.853-0.999907 49.853 1.00009-1.85753e-06 1ZM48.5197-3.99991 56.5197 0.000104987 48.5197 4.00009Z" fill="#156082" transform="matrix(-1 0 0 1 666.52 123)"/><path d="M0 1-24 1-23 0-23 47.2962-24 46.2962 87.6616 46.2962 87.6616 48.2962-25 48.2962-25-1 0-1ZM86.3283 43.2962 94.3283 47.2962 86.3283 51.2962Z" fill="#156082" transform="matrix(-1 0 0 1 1008.33 172)"/><path d="M0 1-24 1-23 0-23 83.7356-24 82.7356 87.6618 82.7356 87.6618 84.7356-25 84.7356-25-1 0-1ZM86.3285 79.7356 94.3285 83.7356 86.3285 87.7356Z" fill="#156082" transform="matrix(-1 0 0 1 1008.33 136)"/><path d="M0 1-24 1-23 0-23 119.823-24 118.823 87.6617 118.823 87.6617 120.823-25 120.823-25-1 0-1ZM86.3284 115.823 94.3284 119.823 86.3284 123.823Z" fill="#156082" transform="matrix(-1 0 0 1 1008.33 100)"/><path d="M0-1 34.6877-1 34.6877 138.787 33.6877 137.787 60.7087 137.787 60.7087 139.787 32.6877 139.787 32.6877 0 33.6877 1 0 1ZM59.3753 134.787 67.3753 138.787 59.3753 142.787Z" fill="#156082" transform="matrix(1.83697e-16 1 1 -1.83697e-16 723 140)"/><path d="M810.372 220.526 709.186 220.526 709.186 185 710.186 186 616.667 186 616.667 184 711.186 184 711.186 219.526 710.186 218.526 810.372 218.526ZM618 189 610 185 618 181Z" fill="#156082"/><rect x="675" y="69" width="105" height="24" stroke="#042433" stroke-width="2" stroke-miterlimit="8" fill="#FFFFFF"/><text font-family="Aptos,Aptos_MSFontService,sans-serif" font-weight="400" font-size="14" transform="translate(710.199 86)">YARN</text></g></svg>