<svg width="1280" height="720" xmlns="http://www.w3.org/2000/svg" xmlns:xlink="http://www.w3.org/1999/xlink" overflow="hidden"><g><rect x="0" y="0" width="1280" height="720" fill="#FFFFFF"/><rect x="474" y="353" width="86" height="34" stroke="#042433" stroke-width="2" stroke-miterlimit="8" fill="#156082"/><text fill="#FFFFFF" font-family="Aptos,Aptos_MSFontService,sans-serif" font-weight="400" font-size="12" transform="translate(484.374 374)">DataNode_n</text><path d="M312 315.833C312 309.298 335.505 304 364.5 304 393.495 304 417 309.298 417 315.833L417 363.167C417 369.702 393.495 375 364.5 375 335.505 375 312 369.702 312 363.167Z" fill="#BEB618" fill-rule="evenodd"/><path d="M417 315.833C417 322.369 393.495 327.667 364.5 327.667 335.505 327.667 312 322.369 312 315.833" stroke="#042433" stroke-width="2" stroke-miterlimit="8" fill="none" fill-rule="evenodd"/><path d="M312 315.833C312 309.298 335.505 304 364.5 304 393.495 304 417 309.298 417 315.833L417 363.167C417 369.702 393.495 375 364.5 375 335.505 375 312 369.702 312 363.167Z" stroke="#042433" stroke-width="2" stroke-miterlimit="8" fill="none" fill-rule="evenodd"/><text fill="#FFFFFF" font-family="Aptos,Aptos_MSFontService,sans-serif" font-weight="400" font-size="24" transform="translate(342.975 353)">NFS</text><rect x="616" y="385" width="96" height="35" stroke="#042433" stroke-width="2" stroke-miterlimit="8" fill="#4EA72E"/><text fill="#FFFFFF" font-family="Aptos,Aptos_MSFontService,sans-serif" font-weight="400" font-size="12" transform="translate(628.575 406)">NameNode_1</text><rect x="740" y="386" width="96" height="35" stroke="#042433" stroke-width="2" stroke-miterlimit="8" fill="#4EA72E"/><text fill="#FFFFFF" font-family="Aptos,Aptos_MSFontService,sans-serif" font-weight="400" font-size="12" transform="translate(752.365 407)">NameNode_2</text><rect x="591" y="248" width="272" height="200" stroke="#042433" stroke-width="2" stroke-linecap="square" stroke-miterlimit="8" stroke-dasharray="6 2" fill="none"/><rect x="605" y="269" width="104" height="23" stroke="#622C0F" stroke-width="2" stroke-miterlimit="8" fill="#E97132"/><text fill="#FFFFFF" font-family="Aptos,Aptos_MSFontService,sans-serif" font-weight="400" font-size="12" transform="translate(618.334 284)">JournalNode_2</text><rect x="751" y="269" width="104" height="23" stroke="#622C0F" stroke-width="2" stroke-miterlimit="8" fill="#E97132"/><text fill="#FFFFFF" font-family="Aptos,Aptos_MSFontService,sans-serif" font-weight="400" font-size="12" transform="translate(764.439 284)">JournalNode_3</text><rect x="675" y="327" width="104" height="23" stroke="#622C0F" stroke-width="2" stroke-miterlimit="8" fill="#E97132"/><text fill="#FFFFFF" font-family="Aptos,Aptos_MSFontService,sans-serif" font-weight="400" font-size="12" transform="translate(688.229 342)">JournalNode_1</text><path d="M6.48525 1.84019 70.5507 30.8638 69.7254 32.6856 5.65993 3.66196ZM5.63645 6.94482 0 0 8.93772-0.342266ZM70.5742 27.581 76.2106 34.5258 67.2729 34.868Z" fill="#156082" transform="matrix(1 0 0 -1 727 326.526)"/><path d="M663.42 294.056 721.36 322.677 720.475 324.47 662.534 295.849ZM662.401 299.129 657 292 665.944 291.957ZM721.493 319.396 726.895 326.526 717.95 326.569Z" fill="#156082"/><path d="M715.667 279 744.86 279 744.86 281 715.667 281ZM717 284 709 280 717 276ZM743.526 276 751.526 280 743.526 284Z" fill="#156082"/><path d="M733.27 352.476 782.785 381.161 781.783 382.891 732.267 354.207ZM731.917 357.471 727 350 735.927 350.549ZM783.135 377.897 788.053 385.368 779.125 384.819Z" fill="#156082"/><path d="M6.32276 2.33816 57.3782 30.4354 56.4139 32.1876 5.35848 4.09035ZM5.0802 7.36149 0 0 8.93731 0.352737ZM57.6565 27.1643 62.7367 34.5258 53.7994 34.173Z" fill="#156082" transform="matrix(-1 0 0 1 726.737 350)"/><rect x="607" y="233" width="105" height="24" stroke="#042433" stroke-width="2" stroke-miterlimit="8" fill="#FFFFFF"/><text font-family="Aptos,Aptos_MSFontService,sans-serif" font-weight="400" font-size="14" transform="translate(621.777 250)">myhacluster</text><rect x="597" y="373" width="60" height="24" stroke="#042433" stroke-width="2" stroke-miterlimit="8" fill="#FFFFFF"/><text font-family="Aptos,Aptos_MSFontService,sans-serif" font-weight="400" font-size="12" transform="translate(611.396 389)">active</text><rect x="791" y="373" width="66" height="24" stroke="#042433" stroke-width="2" stroke-miterlimit="8" fill="#FFFFFF"/><text font-family="Aptos,Aptos_MSFontService,sans-serif" font-weight="400" font-size="12" transform="translate(801.356 389)">stand</text><text font-family="Aptos,Aptos_MSFontService,sans-serif" font-weight="400" font-size="12" transform="translate(830.689 389)">-</text><text font-family="Aptos,Aptos_MSFontService,sans-serif" font-weight="400" font-size="12" transform="translate(834.856 389)">by</text><rect x="474" y="275" width="86" height="34" stroke="#042433" stroke-width="2" stroke-miterlimit="8" fill="#156082"/><text fill="#FFFFFF" font-family="Aptos,Aptos_MSFontService,sans-serif" font-weight="400" font-size="12" transform="translate(484.54 296)">DataNode_1</text><path d="M6.66667-0.999977 24.0698-0.999918 24.0698 1.00008 6.66666 1.00002ZM7.99999 4.00003 0 0 8.00001-3.99997ZM22.7365-3.99992 30.7365 0.000104987 22.7365 4.00008Z" fill="#156082" transform="matrix(-1 0 0 1 590.737 370)"/><path d="M6.66668-0.999886 24.07-0.999589 24.07 1.00041 6.66665 1.00011ZM7.99993 4.00014 0 0 8.00007-3.99986ZM22.7368-3.99961 30.7367 0.000524934 22.7366 4.00039Z" fill="#156082" transform="matrix(1 0 0 -1 560 292.001)"/><rect x="455" y="220" width="420" height="240" stroke="#042433" stroke-width="2" stroke-miterlimit="8" fill="none"/><rect x="468" y="210" width="105" height="23" stroke="#042433" stroke-width="2" stroke-miterlimit="8" fill="#FFFFFF"/><text font-family="Aptos,Aptos_MSFontService,sans-serif" font-weight="400" font-size="14" transform="translate(503.246 226)">HDFS</text><rect x="474" y="314" width="86" height="35" stroke="#042433" stroke-width="2" stroke-miterlimit="8" fill="#156082"/><text fill="#FFFFFF" font-family="Aptos,Aptos_MSFontService,sans-serif" font-weight="400" font-size="12" transform="translate(511.957 335)">…</text><path d="M423.667 339 447.701 339 447.701 341 423.667 341ZM425 344 417 340 425 336ZM446.368 336 454.368 340 446.368 344Z" fill="#156082"/><rect x="686" y="413" width="43" height="26" stroke="#042433" stroke-width="2" stroke-miterlimit="8" fill="#4EA72E"/><text fill="#FFFFFF" font-family="Aptos,Aptos_MSFontService,sans-serif" font-weight="400" font-size="8" transform="translate(698.441 428)">ZKFC</text><rect x="814" y="413" width="43" height="26" stroke="#042433" stroke-width="2" stroke-miterlimit="8" fill="#4EA72E"/><text fill="#FFFFFF" font-family="Aptos,Aptos_MSFontService,sans-serif" font-weight="400" font-size="8" transform="translate(826.35 428)">ZKFC</text></g></svg>